<svg xmlns="http://www.w3.org/2000/svg" width="654" height="733" fill="none"><path fill="#51CAFD" fill-rule="evenodd" d="M0 326.05C0 145.979 146.182 0 326.507 0 506.823 0 653 145.979 653 326.05h-93.034c.582-5.518.945-11.098 1.177-16.786 1.113-28.247-1.179-56.281-5.193-79.084-7.633-42.045-23.7-80.405-45.102-114.134-27.803-41.643-67.423-76.376-110.213-94.75-26.454-10.958-53.729-16.246-81.763-15.84V5.45c-9.345.132-18.77.906-28.275 2.302-11.775 1.783-23.294 4.5-34.983 7.968-2.114-1.534-6.071-3.86-10.784-3.86-6.996 0-8.189 9.95-8.189 9.95l1.731 1.73c-.99 1.077-2.041 2.08-3.038 3.03h-.001c-4.103 3.911-7.287 6.945-1.466 10.66 5.92 3.766 12.233 6.143 18.371 8.453 2.788 1.05 5.539 2.086 8.201 3.232 10.109 5.09 15.548 9.995 18.181 16.114 2.684 6.222 2.467 13.703 1.363 23.911.724 4.725-3.156 12.61-8.106 22.671-5.177 10.52-11.524 23.421-15.004 37.578-1.632 6.637-2.505 13.821-2.618 21.038-.24 14.756 2.656 29.582 8.581 39.752 6.085 10.078 13.461 18.305 20.931 26.635 2.953 3.294 5.921 6.604 8.83 10.051 5.437 7.693 7.629 13.515 9.903 19.554v.003h.001v.001c.783 2.081 1.577 4.188 2.516 6.406 3.737 12.582 1.185 23.844-1.367 35.103-.73 3.223-1.461 6.447-2.043 9.701-.135 3.119.036 5.974.491 8.616H0Zm404.632 0h-28.47c11.458-14.739 23.795-27.213 35.02-33.551 3.209.348 1.366 4.161-.4 7.813v.001c-.89 1.841-1.76 3.642-1.953 4.936a313.353 313.353 0 0 0-4.197 20.801Zm40.729 0h-11.722c3.48-11.05 6.796-22.087 9.578-33.089 1.697-11.367-.615-17.258-3.095-23.576-.539-1.375-1.087-2.77-1.603-4.246-.043.095-.217-.2-.531-.73-1.033-1.749-3.574-6.046-7.856-7.266-14.844-4.219-40.434 7.363-46.741 10.218l-.491.222c-.203.092-.376.169-.516.231l-27.294 13.307c-5.193-4.114-7.005-9.817-8.09-14.902-1.594-7.467-8.09-18.256-10.118-19.628-6.604-7.397-12.166-14.907-16.454-21.289-3.037-4.523-4.94-8.532-6.83-12.513v-.001c-1.141-2.405-2.278-4.799-3.656-7.289.384-.787.752-1.534 1.102-2.244 5.837-11.845 6.657-13.509-4.616-26.371-.579-.66-1.12-1.257-1.67-1.864l-.001-.001-.001-.001c-1.382-1.525-2.818-3.109-5.032-5.903 17.86 1.859 32.898-7.005 34.535-21.067 1.764-15.138-12.67-30.572-32.285-34.554 1.331-2.986 2.586-5.995 3.661-9.01 3.698-10.363 7.123-21.425 7.571-30.076.845-18.266-6.415-32.97-18.576-41.536-9.652-6.495-17.228-10.774-27.115-13.562 14.383-4.424 29.521-6.792 44.677-7.43 1.41-.028 2.807-.046 4.208-.046l.004-.01c70.683.113 131.933 41.283 171.95 89.042 5.848 80.346-10.164 157.364-42.993 225.184Zm9.465 0h96.335c1.768-16.96 1.694-34.656 1.354-52.269-2.542-29.186-8.896-58.72-16.349-85.396-5.034-17.109-12.459-34.379-22.044-51.139-4.899-8.345-10.502-16.748-16.749-25.038.136 2.903.245 5.807.327 8.713.203 7.411.226 14.817.066 22.228-.156 7.411-.5 14.812-1.019 22.208a458.237 458.237 0 0 1-2.113 22.129 454.065 454.065 0 0 1-7.473 43.813 450.962 450.962 0 0 1-5.339 21.577 446.215 446.215 0 0 1-6.392 21.289 457.373 457.373 0 0 1-7.43 20.954 455.076 455.076 0 0 1-13.174 30.931ZM268.954 32.594c-8.84-2.859-14.949-4.142-18.133-4.033-1.444.047-2.274.382-2.495.986l1.311.372-2.378.548.05.016.024.008.066.022.05.017c.109.037.218.073.329.106.601.38.832.83 1.057 1.269.303.59.595 1.159 1.764 1.505 1.891.558 3.987 1.13 6.154 1.72l.002.001h.003l.003.002h.001c6.722 1.833 14.128 3.853 18.254 6.22 5.887 3.459 11.057 9.454 14.897 15.52 3.75 5.93 5.089 13.723 5.118 21.464 1.387-6.378 2.089-11.548 2.179-14.43.071-7.67-3.557-14.062-9.104-19.331-5.18-4.925-12.034-8.887-19.152-11.982ZM153.05 135.172c-26.836 0-48.668 21.836-48.668 48.672s21.832 48.696 48.668 48.696 48.696-21.86 48.696-48.696-21.86-48.672-48.696-48.672Zm-63.286 43.799a4.885 4.885 0 0 1 4.873 4.873 4.846 4.846 0 0 1-4.845 4.873h-9.746a4.885 4.885 0 0 1-4.873-4.873 4.882 4.882 0 0 1 4.873-4.873h9.718Zm27.431-47.483c.901 1.571 2.523 2.42 4.226 2.42.826 0 1.675-.203 2.425-.642a4.884 4.884 0 0 0 1.778-6.651l-4.873-8.43c-1.339-2.321-4.33-3.118-6.651-1.778-2.321 1.34-3.118 4.33-1.778 6.651l4.873 8.43Zm-24.931 11.623 8.43 4.873c2.32 1.34 3.118 4.33 1.778 6.651a4.888 4.888 0 0 1-6.651 1.779l-8.43-4.873c-2.32-1.34-3.118-4.331-1.778-6.652a4.884 4.884 0 0 1 6.65-1.778Zm3.557 68.159-8.43 4.873c-2.32 1.34-3.118 4.33-1.778 6.651.9 1.576 2.528 2.425 4.226 2.425.826 0 1.68-.208 2.425-.646l8.43-4.873c2.32-1.34 3.118-4.331 1.778-6.651a4.883 4.883 0 0 0-6.651-1.779Zm52.356 35.861a4.888 4.888 0 0 1 4.873-4.873 4.87 4.87 0 0 1 4.873 4.873v9.745a4.885 4.885 0 0 1-4.873 4.873 4.888 4.888 0 0 1-4.873-4.873v-9.745Zm77.905-68.16h-9.746c-2.679 0-4.868 2.189-4.868 4.873 0 2.68 2.189 4.873 4.868 4.873h9.746a4.888 4.888 0 0 0 4.873-4.873 4.886 4.886 0 0 0-4.873-4.873Zm-108.888 57.253c1.34-2.321 4.331-3.118 6.652-1.778a4.862 4.862 0 0 1 1.802 6.651l-4.873 8.43a4.906 4.906 0 0 1-4.227 2.424 4.88 4.88 0 0 1-2.425-.646c-2.32-1.339-3.118-4.33-1.778-6.651l4.849-8.43Zm71.716 0c-1.34-2.321-4.33-3.118-6.651-1.778-2.321 1.34-3.118 4.33-1.779 6.651l4.873 8.43c.901 1.575 2.524 2.424 4.227 2.424.825 0 1.675-.207 2.425-.646 2.316-1.339 3.118-4.33 1.778-6.651l-4.873-8.43Zm21.398-24.954 8.429 4.873a4.884 4.884 0 0 1 1.779 6.651 4.912 4.912 0 0 1-4.232 2.425c-.82 0-1.646-.208-2.42-.646l-8.429-4.873c-2.321-1.34-3.118-4.331-1.779-6.651a4.884 4.884 0 0 1 6.652-1.779Zm-2.453-54.187c.825 0 1.679-.202 2.424-.641l8.43-4.873c2.321-1.34 3.118-4.33 1.778-6.651-1.339-2.321-4.33-3.118-6.651-1.779l-8.401 4.845c-2.321 1.34-3.118 4.33-1.779 6.651a4.834 4.834 0 0 0 4.199 2.448Zm-23.172-23.175a4.87 4.87 0 0 1-2.424-.642c-2.321-1.34-3.118-4.33-1.779-6.651l4.873-8.43c1.34-2.321 4.331-3.118 6.652-1.778a4.884 4.884 0 0 1 1.778 6.651l-4.873 8.43a4.902 4.902 0 0 1-4.227 2.42Zm-31.633-8.482c2.684 0 4.873-2.189 4.873-4.868v-9.722a4.865 4.865 0 0 0-4.873-4.868 4.865 4.865 0 0 0-4.873 4.868v9.746c0 2.679 2.193 4.844 4.873 4.844Z" clip-rule="evenodd"/><path fill="#51CAFD" d="M78.707 668.183h-12.48l-2.447 5.775H59l11.224-24.943h4.567l11.257 24.943h-4.845l-2.496-5.775Zm-1.534-3.638-4.698-10.897-4.666 10.897h9.364ZM116.976 673.958l-.049-16.526-8.19 13.671h-2.072l-8.189-13.458v16.313h-4.42v-24.943h3.817l9.902 16.542 9.723-16.542h3.817l.033 24.943h-4.372ZM143.187 649.015c2.162 0 4.046.359 5.645 1.076 1.607.71 2.838 1.73 3.687 3.067.856 1.33 1.288 2.904 1.288 4.731 0 1.807-.432 3.385-1.288 4.731-.849 1.338-2.08 2.366-3.687 3.083-1.599.71-3.483 1.061-5.645 1.061h-5.628v7.194h-4.633v-24.943h10.261Zm-.212 13.834c2.023 0 3.557-.429 4.601-1.289 1.044-.857 1.566-2.08 1.566-3.671 0-1.586-.522-2.81-1.566-3.67-1.044-.857-2.578-1.289-4.601-1.289h-5.416v9.919h5.416ZM163.639 649.015h4.633v21.028h13.051v3.915h-17.684v-24.943ZM189.826 649.015h4.633v24.943h-4.633v-24.943ZM222.221 668.183h-12.48l-2.447 5.775h-4.78l11.224-24.943h4.568l11.256 24.943h-4.845l-2.496-5.775Zm-1.534-3.638-4.698-10.897-4.666 10.897h9.364ZM259.739 649.015v24.943h-3.817l-13.752-16.884v16.884h-4.601v-24.943h3.818l13.752 16.884v-16.884h4.6ZM271.273 649.015h10.914c2.651 0 5.012.518 7.08 1.55 2.064 1.035 3.671 2.495 4.813 4.388 1.142 1.884 1.713 4.062 1.713 6.542 0 2.471-.571 4.649-1.713 6.541-1.142 1.884-2.749 3.34-4.813 4.372-2.068 1.036-4.429 1.55-7.08 1.55h-10.914v-24.943Zm10.686 21.028c1.835 0 3.446-.347 4.829-1.044 1.39-.706 2.463-1.705 3.213-3.002.751-1.293 1.126-2.794 1.126-4.502 0-1.717-.375-3.222-1.126-4.519-.75-1.293-1.823-2.288-3.213-2.986-1.383-.705-2.994-1.06-4.829-1.06h-6.053v17.113h6.053ZM317.196 674.317c-2.536 0-4.824-.547-6.867-1.648-2.048-1.109-3.651-2.643-4.813-4.6-1.166-1.966-1.745-4.16-1.745-6.575 0-2.422.579-4.616 1.745-6.574 1.162-1.966 2.765-3.499 4.813-4.6 2.043-1.11 4.331-1.664 6.867-1.664 2.545 0 4.837.554 6.885 1.664 2.043 1.101 3.646 2.626 4.812 4.584 1.163 1.949 1.746 4.143 1.746 6.59s-.583 4.646-1.746 6.591c-1.166 1.95-2.769 3.475-4.812 4.584-2.048 1.101-4.34 1.648-6.885 1.648Zm0-4.062c1.664 0 3.157-.375 4.487-1.126a8.154 8.154 0 0 0 3.148-3.132c.759-1.346 1.142-2.847 1.142-4.503 0-1.664-.383-3.164-1.142-4.502a8.15 8.15 0 0 0-3.148-3.149c-1.33-.75-2.823-1.125-4.487-1.125-1.655 0-3.148.375-4.486 1.125a8.137 8.137 0 0 0-3.132 3.149c-.763 1.338-1.142 2.838-1.142 4.502 0 1.656.379 3.157 1.142 4.503a8.14 8.14 0 0 0 3.132 3.132c1.338.751 2.831 1.126 4.486 1.126ZM366.622 674.317c-2.524 0-4.804-.547-6.835-1.648-2.023-1.109-3.614-2.634-4.764-4.584-1.154-1.945-1.729-4.144-1.729-6.591s.579-4.641 1.745-6.59c1.163-1.958 2.762-3.483 4.797-4.584 2.031-1.11 4.306-1.664 6.819-1.664 2.043 0 3.907.359 5.595 1.076a11.36 11.36 0 0 1 4.274 3.1l-2.985 2.806c-1.807-1.945-4.03-2.92-6.672-2.92-1.709 0-3.243.375-4.601 1.125a8.084 8.084 0 0 0-3.164 3.133c-.763 1.329-1.142 2.834-1.142 4.518 0 1.689.379 3.194 1.142 4.519a8.088 8.088 0 0 0 3.164 3.116c1.358.751 2.892 1.126 4.601 1.126 2.642 0 4.865-.983 6.672-2.953l2.985 2.839c-1.166 1.362-2.594 2.398-4.29 3.115-1.697.706-3.569 1.061-5.612 1.061ZM397.468 674.317c-2.536 0-4.824-.547-6.868-1.648-2.047-1.109-3.65-2.643-4.812-4.6-1.166-1.966-1.746-4.16-1.746-6.575 0-2.422.58-4.616 1.746-6.574 1.162-1.966 2.765-3.499 4.812-4.6 2.044-1.11 4.332-1.664 6.868-1.664 2.545 0 4.837.554 6.885 1.664 2.043 1.101 3.646 2.626 4.812 4.584 1.162 1.949 1.746 4.143 1.746 6.59s-.584 4.646-1.746 6.591c-1.166 1.95-2.769 3.475-4.812 4.584-2.048 1.101-4.34 1.648-6.885 1.648Zm0-4.062c1.664 0 3.157-.375 4.487-1.126a8.154 8.154 0 0 0 3.148-3.132c.759-1.346 1.142-2.847 1.142-4.503 0-1.664-.383-3.164-1.142-4.502a8.15 8.15 0 0 0-3.148-3.149c-1.33-.75-2.823-1.125-4.487-1.125-1.655 0-3.148.375-4.486 1.125a8.137 8.137 0 0 0-3.132 3.149c-.763 1.338-1.142 2.838-1.142 4.502 0 1.656.379 3.157 1.142 4.503a8.14 8.14 0 0 0 3.132 3.132c1.338.751 2.831 1.126 4.486 1.126ZM442.835 649.015v24.943h-3.817l-13.752-16.884v16.884h-4.6v-24.943h3.817l13.752 16.884v-16.884h4.6ZM473.082 670.075v3.883h-18.711v-24.943h18.205v3.882h-13.572v6.493h12.039v3.801h-12.039v6.884h14.078ZM498.797 673.958l-6.77-9.478-6.688 9.478h-5.27l9.25-12.724-8.76-12.219h5.236l6.379 8.874 6.313-8.874h5.025l-8.728 12.039 9.364 12.904h-5.351ZM524.271 674.317c-2.537 0-4.825-.547-6.868-1.648-2.048-1.109-3.65-2.643-4.813-4.6-1.166-1.966-1.745-4.16-1.745-6.574 0-2.423.579-4.617 1.745-6.575 1.163-1.966 2.765-3.499 4.813-4.6 2.043-1.109 4.331-1.664 6.868-1.664 2.545 0 4.837.555 6.884 1.664 2.043 1.101 3.646 2.626 4.812 4.584 1.163 1.949 1.746 4.144 1.746 6.591s-.583 4.645-1.746 6.59c-1.166 1.95-2.769 3.475-4.812 4.584-2.047 1.101-4.339 1.648-6.884 1.648Zm0-4.062c1.664 0 3.156-.375 4.486-1.126a8.14 8.14 0 0 0 3.148-3.132c.759-1.346 1.142-2.847 1.142-4.502 0-1.664-.383-3.165-1.142-4.503a8.127 8.127 0 0 0-3.148-3.148c-1.33-.751-2.822-1.126-4.486-1.126-1.656 0-3.149.375-4.487 1.126a8.127 8.127 0 0 0-3.132 3.148c-.762 1.338-1.142 2.839-1.142 4.503 0 1.655.38 3.156 1.142 4.502a8.14 8.14 0 0 0 3.132 3.132c1.338.751 2.831 1.126 4.487 1.126Zm2.577-23.263c-.599 0-1.117-.118-1.55-.359-.436-.237-.974-.595-1.615-1.077-.383-.301-.697-.53-.946-.685-.253-.151-.497-.228-.734-.228-.502 0-.913.191-1.24.571-.318.371-.485.893-.505 1.566h-2.382c.02-1.456.379-2.614 1.076-3.475.706-.869 1.632-1.305 2.774-1.305.587 0 1.097.122 1.533.359.445.241.987.595 1.632 1.06.379.318.693.551.946.702.249.155.493.228.734.228.489 0 .889-.171 1.207-.522.326-.359.506-.856.538-1.501h2.382c-.045 1.395-.416 2.521-1.109 3.377-.685.861-1.599 1.289-2.741 1.289ZM566.18 670.075v3.883h-18.712v-24.943h18.206v3.882h-13.573v6.493h12.04v3.801h-12.04v6.884h14.079ZM583.919 674.317c-1.925 0-3.785-.273-5.58-.816-1.786-.555-3.205-1.28-4.257-2.186l1.615-3.589c1.019.808 2.271 1.464 3.752 1.974 1.488.514 2.977.767 4.47.767 1.859 0 3.246-.294 4.159-.881.914-.596 1.371-1.387 1.371-2.366 0-.705-.257-1.288-.767-1.745-.514-.465-1.158-.832-1.941-1.093-.783-.269-1.856-.571-3.214-.897-1.905-.457-3.442-.906-4.617-1.354a7.758 7.758 0 0 1-3.034-2.121c-.84-.954-1.256-2.255-1.256-3.899 0-1.378.375-2.631 1.126-3.752.75-1.13 1.876-2.027 3.376-2.692 1.509-.673 3.361-1.011 5.547-1.011 1.521 0 3.018.191 4.486.571 1.477.383 2.749.93 3.817 1.647l-1.468 3.589a14.167 14.167 0 0 0-3.409-1.452c-1.187-.334-2.341-.505-3.459-.505-1.827 0-3.189.31-4.078.93-.893.62-1.338 1.443-1.338 2.463 0 .71.253 1.289.767 1.745.51.449 1.158.8 1.941 1.061.783.261 1.848.563 3.198.897 1.859.424 3.381.873 4.567 1.338a7.671 7.671 0 0 1 3.035 2.121c.848.946 1.272 2.23 1.272 3.849a6.56 6.56 0 0 1-1.125 3.736c-.743 1.122-1.872 2.015-3.394 2.676-1.525.66-3.376.995-5.562.995Z"/><path fill="#fff" d="m180.348 711.873-12.241 4.578 12.241 4.562v3.685L164 718.367v-3.831l16.348-6.348v3.685ZM195.371 707.897v7.549h11.981v3.913h-11.981v9.497h-4.611v-24.823h18.118v3.864h-13.507ZM229.772 729.213c-2.525 0-4.802-.544-6.835-1.64-2.037-1.104-3.633-2.63-4.789-4.578-1.161-1.956-1.737-4.14-1.737-6.543 0-2.411.576-4.594 1.737-6.542 1.156-1.957 2.752-3.483 4.789-4.579 2.033-1.103 4.31-1.655 6.835-1.655 2.532 0 4.813.552 6.851 1.655 2.033 1.096 3.628 2.614 4.789 4.562 1.157 1.941 1.737 4.124 1.737 6.559 0 2.436-.58 4.623-1.737 6.559-1.161 1.94-2.756 3.458-4.789 4.562-2.038 1.096-4.319 1.64-6.851 1.64Zm0-4.043c1.656 0 3.141-.373 4.464-1.12a8.114 8.114 0 0 0 3.134-3.117c.755-1.339 1.136-2.833 1.136-4.481 0-1.656-.381-3.149-1.136-4.48a8.096 8.096 0 0 0-3.134-3.134c-1.323-.747-2.808-1.12-4.464-1.12-1.648 0-3.133.373-4.465 1.12a8.087 8.087 0 0 0-3.117 3.134c-.759 1.331-1.136 2.824-1.136 4.48 0 1.648.377 3.142 1.136 4.481a8.104 8.104 0 0 0 3.117 3.117c1.332.747 2.817 1.12 4.465 1.12ZM269.103 728.856l-5.082-7.273a9.1 9.1 0 0 1-.958.033h-5.601v7.24h-4.61v-24.823h10.211c2.151 0 4.026.358 5.617 1.072 1.6.706 2.825 1.721 3.67 3.052.852 1.323 1.282 2.89 1.282 4.708 0 1.875-.454 3.487-1.364 4.838-.909 1.344-2.216 2.346-3.912 3.004l5.698 8.149h-4.951Zm-.114-15.991c0-1.579-.52-2.796-1.559-3.653-1.039-.852-2.565-1.282-4.578-1.282h-5.39v9.903h5.39c2.013 0 3.539-.43 4.578-1.299 1.039-.864 1.559-2.086 1.559-3.669ZM288.625 707.93h-8.215v-3.897h21.057v3.897h-8.231v20.926h-4.611V707.93ZM325.863 723.109h-12.42l-2.435 5.747h-4.757l11.17-24.823h4.546l11.202 24.823h-4.822l-2.484-5.747Zm-1.526-3.62-4.676-10.845-4.643 10.845h9.319ZM341.137 704.033h4.61v20.927h12.988v3.896h-17.598v-24.823ZM385.825 724.993v3.863h-18.621v-24.823h18.118v3.864h-13.508v6.462h11.982v3.782h-11.982v6.852h14.011ZM415.062 724.96v3.896h-21.154v-3.084l14.595-17.842h-14.351v-3.897h20.456v3.085l-14.612 17.842h15.066ZM440.213 723.109h-12.419l-2.436 5.747h-4.756l11.169-24.823h4.546l11.202 24.823h-4.822l-2.484-5.747Zm-1.526-3.62-4.675-10.845-4.644 10.845h9.319ZM462.793 699h3.978l-11.706 33.395h-3.977L462.793 699ZM488.79 714.536v3.831l-16.349 6.331v-3.685l12.225-4.562-12.225-4.578v-3.685l16.349 6.348ZM121 370.055H24.201C10.892 370.055 0 380.944 0 394.256v96.799h24.201v-48.4H121v-24.201H24.201v-24.198H121v-24.201ZM254.1 394.256c0-13.312-10.889-24.201-24.198-24.201H133.1v121h24.201v-48.4h14.216l44.771 44.771c2.42 2.42 5.446 3.629 8.773 3.629H254.1v-24.202h-24.198L205.7 442.655h24.202c13.309 0 24.198-10.888 24.198-24.201v-24.198Zm-24.198 0v24.198h-72.601v-24.198h72.601ZM363.001 491.055c13.459 0 24.198-11.04 24.198-24.202v-72.597c0-13.312-10.889-24.201-24.198-24.201H290.4c-13.309 0-24.201 10.889-24.201 24.201v72.597c0 13.313 10.892 24.202 24.201 24.202h72.601ZM290.4 394.256h72.601v72.597H290.4v-72.597ZM423.5 491.055v-79.707l76.079 76.078c2.269 2.266 5.292 3.629 8.623 3.629 6.654 0 12.097-5.447 12.097-12.101V370.055h-24.198v79.71l-76.079-76.082c-2.269-2.266-5.295-3.628-8.622-3.628-6.655 0-12.101 5.446-12.101 12.1v108.9H423.5ZM653.398 370.055h-121v24.201h48.403v96.799h24.198v-96.799h48.399v-24.201ZM80.484 532.055h-64.39C7.244 532.055 0 539.299 0 548.154v48.291c0 8.854 7.245 16.099 16.094 16.099h64.39v-16.099h-64.39v-16.093h64.39v-16.099h-64.39v-16.099h64.39v-16.099ZM122.338 612.544v-53.021l50.61 50.605c1.51 1.51 3.521 2.416 5.734 2.416 4.427 0 8.047-3.62 8.047-8.047v-72.442h-16.094v53.021l-50.609-50.605c-1.511-1.51-3.521-2.416-5.734-2.416-4.428 0-8.047 3.625-8.047 8.052v72.437h16.093ZM276.879 612.544c8.855 0 16.094-7.245 16.094-16.099v-48.291c0-8.855-7.239-16.099-16.094-16.099h-64.39v80.489h64.39Zm-48.296-64.39h48.296v48.291h-48.296v-48.291Z"/><path fill="#51CAFD" d="M424.391 612.544c8.854 0 16.093-7.245 16.093-16.099v-48.291c0-8.855-7.239-16.099-16.093-16.099H360v80.489h64.391Zm-48.297-64.39h48.297v48.291h-48.297v-48.291ZM482.338 532.055c-8.849 0-16.093 7.244-16.093 16.099v64.39h16.093v-32.192h48.297v32.192h16.094v-64.39c0-8.855-7.24-16.099-16.094-16.099h-48.297Zm0 16.099h48.297v16.099h-48.297v-16.099ZM636.879 564.253h-48.296v-32.198h-16.094v32.198c0 8.854 7.245 16.099 16.094 16.099h48.296v16.093h-64.39v16.099h64.39c8.855 0 16.094-7.245 16.094-16.099v-64.39h-16.094v32.198Z"/></svg>