<svg xmlns="http://www.w3.org/2000/svg" width="1275" height="691" fill="none">
	<path fill="#8C5BF1" fill-rule="evenodd"
		d="M277 359.995C277 161.177 438.401 0 637.5 0c199.089 0 360.484 161.177 360.484 359.995H895.265c.642-6.092 1.043-12.253 1.299-18.534 1.23-31.187-1.302-62.14-5.734-87.317-8.427-46.422-26.167-88.776-49.797-126.016C810.335 82.148 766.59 43.8 719.346 23.514c-29.209-12.1-59.323-17.938-90.276-17.49v-.005c-10.318.146-20.724 1-31.219 2.541-13 1.97-25.719 4.97-38.625 8.797-2.334-1.692-6.703-4.26-11.906-4.26-7.724 0-9.042 10.984-9.042 10.984l1.911 1.912c-1.093 1.189-2.254 2.296-3.356 3.345-4.529 4.318-8.044 7.668-1.618 11.77 6.537 4.158 13.507 6.781 20.284 9.333 3.078 1.158 6.116 2.302 9.055 3.567 11.161 5.62 17.167 11.037 20.073 17.792 2.963 6.87 2.724 15.13 1.505 26.401.799 5.217-3.484 13.922-8.95 25.03-5.715 11.616-12.724 25.86-16.566 41.491-1.802 7.328-2.765 15.26-2.89 23.229-.266 16.292 2.932 32.661 9.474 43.891 6.718 11.126 14.863 20.21 23.11 29.408l.001.001c3.261 3.636 6.537 7.29 9.748 11.096 6.003 8.493 8.424 14.922 10.934 21.59.866 2.299 1.742 4.626 2.78 7.076 4.126 13.893 1.308 26.327-1.509 38.758-.807 3.559-1.614 7.118-2.257 10.711-.149 3.444.041 6.596.543 9.513H277Zm446.759 0h-31.434c12.65-16.274 26.272-30.046 38.666-37.044 3.543.384 1.508 4.595-.442 8.627-.983 2.033-1.944 4.022-2.157 5.451-1.866 7.834-3.367 15.434-4.633 22.966Zm44.969 0h-12.942c3.842-12.2 7.503-24.386 10.575-36.534 1.874-12.55-.679-19.054-3.417-26.03l-.001-.002-.001-.002c-.595-1.517-1.199-3.056-1.768-4.684-.048.105-.24-.221-.586-.806l-.001-.001c-1.141-1.93-3.946-6.675-8.674-8.021-16.389-4.659-44.643 8.129-51.607 11.281-.471.214-.845.383-1.111.5l-30.136 14.692c-5.734-4.541-7.734-10.838-8.932-16.453-1.761-8.244-8.932-20.156-11.172-21.672-7.292-8.166-13.432-16.458-18.167-23.505-3.354-4.993-5.455-9.42-7.541-13.815-1.26-2.655-2.515-5.299-4.037-8.049.414-.848.81-1.652 1.187-2.418l.007-.013.009-.02.013-.026c6.445-13.079 7.351-14.916-5.096-29.117-.639-.729-1.237-1.389-1.844-2.059-1.527-1.684-3.113-3.434-5.557-6.519 19.719 2.052 36.323-7.735 38.13-23.261 1.948-16.713-13.989-33.755-35.646-38.151 1.469-3.297 2.854-6.619 4.042-9.948 4.083-11.442 7.865-23.656 8.359-33.208.933-20.167-7.083-36.401-20.51-45.86-10.656-7.171-19.021-11.895-29.938-14.973 15.881-4.886 32.594-7.5 49.329-8.203 1.557-.032 3.099-.053 4.645-.053l.006-.01c78.041.125 145.667 45.581 189.851 98.313 6.456 88.71-11.222 173.747-47.469 248.627Zm10.451 0h106.364c1.952-18.726 1.87-38.264 1.495-57.711-2.807-32.224-9.823-64.833-18.052-94.286-5.557-18.891-13.755-37.958-24.338-56.464-5.409-9.213-11.595-18.491-18.494-27.644.151 3.205.272 6.412.362 9.62.45 16.362.099 32.736-1.052 49.063a506.068 506.068 0 0 1-2.334 24.432 501.912 501.912 0 0 1-3.531 24.287 497.67 497.67 0 0 1-4.719 24.088 497.24 497.24 0 0 1-5.896 23.823 490.488 490.488 0 0 1-7.057 23.505 503.263 503.263 0 0 1-8.203 23.136 502.654 502.654 0 0 1-14.545 34.151ZM573.955 35.987c-9.76-3.156-16.505-4.573-20.021-4.453-1.594.052-2.51.422-2.755 1.089l1.448.411-2.625.605c.07.022.139.045.208.069.121.04.242.081.365.118.663.42.918.916 1.167 1.4.334.652.656 1.28 1.947 1.663 2.091.616 4.408 1.248 6.804 1.901h.001c7.421 2.025 15.598 4.255 20.154 6.87 6.5 3.817 12.208 10.437 16.448 17.135 4.14 6.547 5.619 15.15 5.651 23.698 1.531-7.042 2.307-12.75 2.406-15.933.078-8.468-3.927-15.526-10.052-21.343-5.719-5.438-13.287-9.813-21.146-13.23ZM445.984 149.245c-29.63 0-53.734 24.109-53.734 53.739 0 29.631 24.104 53.766 53.734 53.766 29.631 0 53.766-24.135 53.766-53.766 0-29.63-24.135-53.739-53.766-53.739Zm-69.875 48.359c2.959 0 5.381 2.417 5.381 5.38 0 2.99-2.391 5.381-5.349 5.381H365.38c-2.963 0-5.38-2.422-5.38-5.381a5.388 5.388 0 0 1 5.38-5.38h10.729Zm30.287-52.427c.995 1.734 2.786 2.672 4.666 2.672.94.005 1.864-.24 2.678-.708 2.557-1.48 3.442-4.782 1.963-7.344l-5.38-9.307c-1.479-2.563-4.781-3.443-7.344-1.964-2.562 1.479-3.443 4.781-1.963 7.344l5.38 9.307ZM378.87 158.01l9.307 5.381c2.563 1.479 3.443 4.781 1.964 7.343a5.409 5.409 0 0 1-7.344 1.964l-9.307-5.38c-2.563-1.479-3.443-4.782-1.964-7.344 1.479-2.557 4.781-3.443 7.344-1.964Zm3.927 75.256-9.307 5.38c-2.563 1.479-3.443 4.781-1.964 7.344.995 1.739 2.792 2.677 4.667 2.677a5.296 5.296 0 0 0 2.677-.714l9.307-5.38c2.563-1.479 3.443-4.781 1.964-7.344-1.48-2.557-4.782-3.443-7.344-1.963Zm57.807 39.593c0-2.958 2.422-5.38 5.38-5.38a5.372 5.372 0 0 1 4.972 3.32c.27.653.409 1.353.409 2.06v10.761a5.394 5.394 0 0 1-5.381 5.38c-2.958 0-5.38-2.422-5.38-5.38v-10.761Zm86.016-75.255h-10.761c-2.958 0-5.375 2.417-5.375 5.38 0 2.959 2.417 5.381 5.375 5.381h10.761c2.958 0 5.38-2.422 5.38-5.381 0-2.963-2.422-5.38-5.38-5.38Zm-120.224 63.214c1.479-2.563 4.781-3.443 7.344-1.964a5.358 5.358 0 0 1 2.52 3.259 5.364 5.364 0 0 1-.531 4.085l-5.38 9.307a5.409 5.409 0 0 1-7.344 1.964c-2.562-1.479-3.443-4.781-1.963-7.344l5.354-9.307Zm79.182 0c-1.479-2.563-4.781-3.443-7.344-1.964-2.562 1.479-3.442 4.781-1.963 7.344l5.38 9.307c.995 1.74 2.786 2.677 4.667 2.677.911 0 1.849-.229 2.677-.713 2.557-1.479 3.442-4.781 1.963-7.344l-5.38-9.307Zm23.625-27.552 9.307 5.38c2.558 1.479 3.443 4.781 1.964 7.344a5.425 5.425 0 0 1-4.672 2.677 5.375 5.375 0 0 1-2.672-.714l-9.307-5.38c-2.563-1.479-3.443-4.781-1.964-7.344 1.479-2.557 4.782-3.443 7.344-1.963Zm-2.708-59.829c.911 0 1.854-.223 2.677-.708l9.307-5.38c2.563-1.479 3.443-4.781 1.964-7.344-1.48-2.562-4.782-3.443-7.344-1.963l-9.276 5.349c-2.563 1.479-3.443 4.781-1.964 7.343a5.333 5.333 0 0 0 4.636 2.703Zm-25.584-25.588a5.39 5.39 0 0 1-2.677-.708c-2.562-1.48-3.442-4.782-1.963-7.344l5.38-9.307c1.479-2.563 4.781-3.443 7.344-1.964 2.557 1.479 3.442 4.781 1.963 7.344l-5.38 9.307a5.427 5.427 0 0 1-1.978 1.957 5.421 5.421 0 0 1-2.689.715Zm-34.927-9.365c2.964 0 5.381-2.416 5.381-5.375v-10.734a5.381 5.381 0 0 0-7.44-4.968 5.384 5.384 0 0 0-2.912 2.91 5.381 5.381 0 0 0-.409 2.058v10.76c0 2.959 2.422 5.349 5.38 5.349Z"
		clip-rule="evenodd" />
	<path fill="#8C5BF1"
		d="M98.167 678.543H82.229l-3.125 7.375H73l14.333-31.855h5.834l14.375 31.855h-6.188l-3.187-7.375Zm-1.959-4.646-6-13.917-5.958 13.917h11.958Zm50.831 12.021-.063-21.105-10.458 17.459h-2.646l-10.458-17.188v20.834h-5.646v-31.855h4.875l12.646 21.125 12.416-21.125h4.875l.042 31.855h-5.583Zm33.474-31.855c2.76 0 5.167.459 7.208 1.375 2.052.907 3.625 2.209 4.709 3.917 1.093 1.698 1.645 3.708 1.645 6.042 0 2.307-.552 4.323-1.645 6.041-1.084 1.709-2.657 3.021-4.709 3.938-2.041.906-4.448 1.354-7.208 1.354h-7.188v9.188h-5.916v-31.855h13.104Zm-.271 17.667c2.583 0 4.542-.547 5.875-1.646 1.333-1.093 2-2.656 2-4.687 0-2.026-.667-3.589-2-4.688-1.333-1.093-3.292-1.646-5.875-1.646h-6.917v12.667h6.917Zm26.388-17.667h5.917v26.855h16.666v5H206.63v-31.855Zm33.443 0h5.917v31.855h-5.917v-31.855Zm41.369 24.48h-15.937l-3.125 7.375h-6.104l14.333-31.855h5.833l14.375 31.855h-6.187l-3.188-7.375Zm-1.958-4.646-6-13.917-5.958 13.917h11.958Zm49.872-19.834v31.855h-4.875l-17.562-21.563v21.563h-5.875v-31.855h4.875l17.562 21.563v-21.563h5.875Zm14.731 0h13.938c3.385 0 6.401.662 9.041 1.98 2.636 1.323 4.688 3.187 6.146 5.604 1.458 2.406 2.188 5.187 2.188 8.354 0 3.156-.73 5.937-2.188 8.354-1.458 2.406-3.51 4.266-6.146 5.583-2.64 1.323-5.656 1.98-9.041 1.98h-13.938v-31.855Zm13.646 26.855c2.344 0 4.401-.443 6.167-1.334 1.776-.901 3.145-2.177 4.104-3.833.958-1.651 1.437-3.568 1.437-5.75 0-2.193-.479-4.115-1.437-5.771-.959-1.651-2.328-2.922-4.104-3.812-1.766-.901-3.823-1.355-6.167-1.355h-7.729v21.855h7.729Zm45 5.458c-3.239 0-6.161-.698-8.77-2.104-2.615-1.417-4.662-3.375-6.146-5.875-1.49-2.511-2.229-5.313-2.229-8.396 0-3.094.739-5.896 2.229-8.396 1.484-2.51 3.531-4.469 6.146-5.875 2.609-1.417 5.531-2.125 8.77-2.125 3.25 0 6.178.708 8.792 2.125 2.61 1.406 4.656 3.354 6.146 5.854 1.484 2.49 2.229 5.292 2.229 8.417s-.745 5.932-2.229 8.417c-1.49 2.489-3.536 4.437-6.146 5.854-2.614 1.406-5.542 2.104-8.792 2.104Zm0-5.188c2.125 0 4.032-.479 5.73-1.437a10.406 10.406 0 0 0 4.02-4c.969-1.719 1.459-3.635 1.459-5.75 0-2.125-.49-4.042-1.459-5.75-.973-1.719-2.312-3.063-4.02-4.021-1.698-.958-3.605-1.437-5.73-1.437-2.114 0-4.02.479-5.729 1.437-1.698.958-3.031 2.302-4 4.021-.974 1.708-1.458 3.625-1.458 5.75 0 2.115.484 4.031 1.458 5.75a10.402 10.402 0 0 0 4 4c1.709.958 3.615 1.437 5.729 1.437Zm63.121 5.188c-3.224 0-6.135-.698-8.729-2.104-2.583-1.417-4.615-3.365-6.083-5.854-1.474-2.485-2.209-5.292-2.209-8.417s.74-5.927 2.23-8.417c1.484-2.5 3.526-4.448 6.125-5.854 2.593-1.417 5.5-2.125 8.708-2.125 2.609 0 4.989.458 7.146 1.375 2.151.906 3.968 2.224 5.458 3.958l-3.812 3.584c-2.308-2.485-5.146-3.729-8.521-3.729-2.183 0-4.141.479-5.875 1.437a10.335 10.335 0 0 0-4.042 4c-.974 1.698-1.458 3.62-1.458 5.771 0 2.156.484 4.078 1.458 5.771.969 1.698 2.318 3.021 4.042 3.979 1.734.958 3.692 1.437 5.875 1.437 3.375 0 6.213-1.255 8.521-3.77l3.812 3.625c-1.49 1.739-3.312 3.062-5.479 3.979-2.167.901-4.557 1.354-7.167 1.354Zm39.392 0c-3.239 0-6.161-.698-8.771-2.104-2.614-1.417-4.661-3.375-6.145-5.875-1.49-2.511-2.23-5.313-2.23-8.396 0-3.094.74-5.896 2.23-8.396 1.484-2.51 3.531-4.469 6.145-5.875 2.61-1.417 5.532-2.125 8.771-2.125 3.25 0 6.177.708 8.792 2.125 2.609 1.406 4.656 3.354 6.146 5.854 1.484 2.49 2.229 5.292 2.229 8.417s-.745 5.932-2.229 8.417c-1.49 2.489-3.537 4.437-6.146 5.854-2.615 1.406-5.542 2.104-8.792 2.104Zm0-5.188c2.125 0 4.031-.479 5.729-1.437a10.402 10.402 0 0 0 4.021-4c.969-1.719 1.459-3.635 1.459-5.75 0-2.125-.49-4.042-1.459-5.75-.974-1.719-2.312-3.063-4.021-4.021-1.698-.958-3.604-1.437-5.729-1.437-2.114 0-4.021.479-5.729 1.437-1.698.958-3.031 2.302-4 4.021-.974 1.708-1.458 3.625-1.458 5.75 0 2.115.484 4.031 1.458 5.75a10.402 10.402 0 0 0 4 4c1.708.958 3.615 1.437 5.729 1.437Zm57.937-27.125v31.855h-4.875l-17.563-21.563v21.563h-5.875v-31.855h4.875l17.563 21.563v-21.563h5.875Zm38.627 26.896v4.959h-23.896v-31.855h23.25v4.959H583.83v8.291h15.375v4.855H583.83v8.791h17.98Zm32.84 4.959-8.646-12.105-8.542 12.105h-6.729l11.813-16.25-11.188-15.605h6.688l8.145 11.334 8.063-11.334h6.417l-11.146 15.375 11.958 16.48h-6.833Zm32.532.458c-3.239 0-6.161-.698-8.771-2.104-2.614-1.417-4.661-3.375-6.145-5.875-1.49-2.511-2.23-5.313-2.23-8.396 0-3.094.74-5.896 2.23-8.396 1.484-2.51 3.531-4.469 6.145-5.875 2.61-1.417 5.532-2.125 8.771-2.125 3.25 0 6.177.708 8.792 2.125 2.609 1.406 4.656 3.354 6.146 5.854 1.484 2.49 2.229 5.292 2.229 8.417s-.745 5.932-2.229 8.417c-1.49 2.489-3.537 4.437-6.146 5.854-2.615 1.406-5.542 2.104-8.792 2.104Zm0-5.188c2.125 0 4.031-.479 5.729-1.437a10.402 10.402 0 0 0 4.021-4c.969-1.719 1.459-3.635 1.459-5.75 0-2.125-.49-4.042-1.459-5.75-.974-1.719-2.312-3.063-4.021-4.021-1.698-.958-3.604-1.437-5.729-1.437-2.114 0-4.021.479-5.729 1.437-1.698.958-3.031 2.302-4 4.021-.974 1.708-1.458 3.625-1.458 5.75 0 2.115.484 4.031 1.458 5.75a10.402 10.402 0 0 0 4 4c1.708.958 3.615 1.437 5.729 1.437Zm3.292-29.708c-.766 0-1.427-.151-1.979-.458-.558-.302-1.245-.761-2.063-1.375-.489-.386-.89-.677-1.208-.875-.323-.193-.636-.292-.938-.292a2 2 0 0 0-1.583.729c-.406.474-.62 1.141-.646 2h-3.041c.026-1.859.484-3.338 1.375-4.437.901-1.11 2.083-1.667 3.541-1.667.75 0 1.401.156 1.959.458.567.308 1.26.761 2.083 1.355.484.406.885.703 1.208.895.318.198.63.292.938.292.625 0 1.135-.219 1.541-.667.417-.458.646-1.093.688-1.916h3.042c-.058 1.781-.532 3.219-1.417 4.312-.875 1.099-2.042 1.646-3.5 1.646Zm50.228 29.479v4.959h-23.895v-31.855h23.25v4.959h-17.334v8.291h15.375v4.855h-15.375v8.791h17.979Zm22.653 5.417c-2.458 0-4.833-.349-7.125-1.042-2.281-.708-4.094-1.635-5.438-2.791l2.063-4.584c1.302 1.032 2.901 1.87 4.792 2.521 1.901.656 3.802.979 5.708.979 2.375 0 4.146-.375 5.312-1.125 1.167-.76 1.75-1.771 1.75-3.021 0-.901-.328-1.645-.979-2.229-.656-.593-1.479-1.062-2.479-1.396-1-.343-2.37-.729-4.104-1.145-2.432-.584-4.396-1.157-5.896-1.73a9.884 9.884 0 0 1-3.875-2.708c-1.073-1.219-1.604-2.88-1.604-4.979 0-1.76.479-3.359 1.437-4.792.959-1.442 2.396-2.588 4.313-3.437 1.927-.86 4.292-1.292 7.083-1.292 1.943 0 3.854.245 5.729.729 1.886.49 3.511 1.188 4.875 2.104l-1.875 4.584a17.956 17.956 0 0 0-4.354-1.854c-1.515-.427-2.989-.646-4.416-.646-2.334 0-4.073.396-5.209 1.187-1.14.792-1.708 1.844-1.708 3.146 0 .906.323 1.646.979 2.229.651.573 1.479 1.021 2.479 1.354 1 .334 2.36.719 4.084 1.146 2.375.542 4.317 1.115 5.833 1.709a9.804 9.804 0 0 1 3.875 2.708c1.083 1.208 1.625 2.849 1.625 4.917 0 1.75-.479 3.343-1.438 4.77-.948 1.433-2.39 2.573-4.333 3.417-1.948.844-4.312 1.271-7.104 1.271Z" />
	<path fill="#fff"
		d="m805.432 664.126-15.708 5.875 15.708 5.854v4.729l-20.979-8.125v-4.916l20.979-8.146v4.729Zm19.283-5.104v9.687h15.375v5.021h-15.375v12.188h-5.916v-31.855h23.25v4.959h-17.334Zm44.131 27.354c-3.24 0-6.162-.698-8.771-2.104-2.615-1.417-4.662-3.375-6.146-5.875-1.49-2.511-2.229-5.313-2.229-8.396 0-3.094.739-5.896 2.229-8.396 1.484-2.51 3.531-4.469 6.146-5.875 2.609-1.417 5.531-2.125 8.771-2.125 3.25 0 6.177.708 8.791 2.125 2.61 1.406 4.656 3.354 6.146 5.854 1.484 2.49 2.229 5.292 2.229 8.417s-.745 5.932-2.229 8.417c-1.49 2.489-3.536 4.437-6.146 5.854-2.614 1.406-5.541 2.104-8.791 2.104Zm0-5.188c2.125 0 4.031-.479 5.729-1.437a10.409 10.409 0 0 0 4.021-4c.968-1.719 1.458-3.635 1.458-5.75 0-2.125-.49-4.042-1.458-5.75-.974-1.719-2.313-3.063-4.021-4.021-1.698-.958-3.604-1.437-5.729-1.437-2.115 0-4.021.479-5.73 1.437-1.698.958-3.031 2.302-4 4.021-.974 1.708-1.458 3.625-1.458 5.75 0 2.115.484 4.031 1.458 5.75a10.402 10.402 0 0 0 4 4c1.709.958 3.615 1.437 5.73 1.437Zm50.478 4.73-6.52-9.334c-.266.032-.678.042-1.23.042h-7.187v9.292h-5.917v-31.855h13.104c2.761 0 5.167.459 7.209 1.375 2.052.907 3.625 2.209 4.708 3.917 1.094 1.698 1.646 3.708 1.646 6.042 0 2.406-.583 4.474-1.75 6.208-1.167 1.724-2.844 3.011-5.021 3.854l7.313 10.459h-6.355Zm-.145-20.521c0-2.026-.667-3.589-2-4.688-1.334-1.093-3.292-1.646-5.875-1.646h-6.917v12.709h6.917c2.583 0 4.541-.552 5.875-1.667 1.333-1.109 2-2.677 2-4.708Zm25.198-6.334h-10.541v-5h27.021v5h-10.563v26.855h-5.917v-26.855Zm47.788 19.48h-15.937l-3.125 7.375h-6.104l14.333-31.855h5.833l14.375 31.855h-6.187l-3.188-7.375Zm-1.958-4.646-6-13.917-5.958 13.917h11.958Zm21.563-19.834h5.91v26.855h16.67v5h-22.58v-31.855Zm57.33 26.896v4.959h-23.89v-31.855h23.25v4.959h-17.33v8.291h15.37v4.855h-15.37v8.791h17.97Zm37.53-.041v5h-27.14v-3.959l18.73-22.896h-18.42v-5h26.25v3.959l-18.75 22.896h19.33Zm32.27-2.375h-15.93l-3.13 7.375h-6.1l14.33-31.855h5.83l14.38 31.855h-6.19l-3.19-7.375Zm-1.95-4.646-6-13.917-5.96 13.917h11.96Zm30.93-26.292h5.1l-15.02 42.854h-5.1l15.02-42.854Zm33.36 19.938v4.916l-20.98 8.125v-4.729l15.69-5.854-15.69-5.875v-4.729l20.98 8.146ZM175.771 420.753H35.156C15.823 420.753 0 436.571 0 455.91v140.614h35.156v-70.307h140.615v-35.156H35.156V455.91h140.615v-35.157Zm193.347 35.157c0-19.339-15.818-35.157-35.151-35.157h-140.62v175.771h35.156v-70.307h20.651l65.037 65.036c3.516 3.516 7.911 5.271 12.745 5.271h42.182v-35.156h-35.151l-35.156-35.151h35.156c19.333 0 35.151-15.818 35.151-35.156V455.91Zm-35.151 0v35.151H228.503V455.91h105.464Zm193.347 140.614c19.552 0 35.151-16.036 35.151-35.156V455.91c0-19.339-15.817-35.157-35.151-35.157H421.851c-19.334 0-35.157 15.818-35.157 35.157v105.458c0 19.338 15.823 35.156 35.157 35.156h105.463ZM421.851 455.91h105.463v105.458H421.851V455.91Zm193.347 140.614V480.738l110.516 110.515c3.297 3.292 7.687 5.271 12.526 5.271 9.666 0 17.573-7.911 17.573-17.578V420.753h-35.151v115.792L610.146 426.024c-3.297-3.292-7.693-5.271-12.526-5.271-9.667 0-17.578 7.912-17.578 17.578v158.193h35.156ZM949.16 420.753H773.389v35.157h70.312v140.614h35.151V455.91h70.308v-35.157ZM1061.6 415h-64.395c-8.849 0-16.094 7.245-16.094 16.099v48.292c0 8.854 7.245 16.099 16.094 16.099h64.395v-16.099h-64.395v-16.094h64.395v-16.099h-64.395v-16.099h64.395V415Zm41.85 80.49v-53.021l50.61 50.604c1.51 1.51 3.52 2.417 5.73 2.417 4.43 0 8.05-3.62 8.05-8.047V415h-16.09v53.021l-50.61-50.604c-1.51-1.511-3.52-2.417-5.74-2.417-4.42 0-8.04 3.625-8.04 8.052v72.438h16.09Zm154.54 0c8.85 0 16.09-7.245 16.09-16.099v-48.292c0-8.854-7.24-16.099-16.09-16.099h-64.39v80.49h64.39Zm-48.3-64.391h48.3v48.292h-48.3v-48.292Z" />
	<path fill="#8C5BF1"
		d="M1045.5 603.302c8.86 0 16.1-7.244 16.1-16.099v-48.291c0-8.854-7.24-16.099-16.1-16.099h-64.389v80.489h64.389Zm-48.295-64.39h48.295v48.291h-48.295v-48.291Zm106.245-16.099c-8.85 0-16.09 7.245-16.09 16.099v64.39h16.09V571.11h48.3v32.192h16.09v-64.39c0-8.854-7.24-16.099-16.09-16.099h-48.3Zm0 16.099h48.3v16.099h-48.3v-16.099Zm154.54 16.099h-48.3v-32.198h-16.09v32.198c0 8.854 7.24 16.099 16.09 16.099h48.3v16.093h-64.39v16.099h64.39c8.85 0 16.09-7.244 16.09-16.099v-64.39h-16.09v32.198Z" />
</svg>